<svg height="92.608887mm" viewBox="0 0 723.19313 926.08884" width="72.319313mm" xmlns="http://www.w3.org/2000/svg" xmlns:xlink="http://www.w3.org/1999/xlink"><clipPath id="a"><rect height="1002.7952" ry="13.430514" width="920.4762" x="-454.97961" y="-658.40326"/></clipPath><clipPath id="b"><rect height="957.89398" ry="13.430514" width="834.41547" x="-423.17456" y="-622.85645"/></clipPath><clipPath id="c"><rect height="957.89398" ry="13.430514" width="834.41547" x="-423.17456" y="-622.85645"/></clipPath><clipPath id="d"><rect height="957.89398" ry="13.430514" width="834.41547" x="-423.17456" y="-622.85645"/></clipPath><clipPath id="e"><rect height="957.89398" ry="13.430514" width="834.41547" x="-423.17456" y="-622.85645"/></clipPath><g transform="translate(361.4353 591.05133)"><g style="fill:#fff;fill-opacity:.99;fill-rule:evenodd;stroke-linecap:square;stroke-linejoin:bevel;clip-path:url(#e)"><path d="m360.167-550.175c-3.94392 82.58357-.9185 165.53011-1.874 248.27885v769.93515c3.8365-37.71253.98207-78.22813 1.874-117.19789-.27804-302.59353.55606-605.22124-.41699-907.7934-17.47873-53.05682-86.41803-26.41775-127.53682-32.78415-186.660894.10032-373.32379-.50611-559.98281.60532-40.86294 8.34817-32.00847 57.71046-32.40738 88.74045.27797 352.44003-.5559 704.91423.41688 1057.33291 8.20114 39.57358 55.51472 33.32624 86.23494 32.84076h106.38818c-51.14067 0-102.28133 0-153.422 0 82.58357-3.94392 165.53011-.9185 248.278852-1.874h310.703148c-41.47905 4.38021-86.22214.27301-129.01348 1.23936-92.181281-.55351-184.371108-.73325-276.54652.63464 143.478124-3.64285 287.22915 2.57501 430.55817-1.97413 65.75302-11.38628 107.12813-81.85745 96.74583-145.57505 0-330.80294 0-661.60588 0-992.40882z" fill="#fff" fill-opacity="1" fill-rule="evenodd"/></g><g clip-path="url(#d)" fill="#fff" fill-rule="evenodd" stroke-linecap="square" stroke-linejoin="bevel"><path d="m-358.303 548.291c0-365.53067 0-731.06133 0-1096.592 12.71509 4.18576 44.04437-10.24266 39.618 11.08457v1085.50743c-13.206 0-26.412 0-39.618 0z" fill-rule="evenodd"/></g><path d="m119.883 129.535c-51.333579-2.79915-80.649213 68.01554-42.386875 102.33075 34.315195 38.26232 105.129915 8.94683 102.330875-42.38675.68624-32.22869-27.69325-60.62691-59.944-59.944z" fill="#fff" fill-rule="evenodd"/><path d="m239.771 50.2869c-51.33358-2.799078-80.64907 68.01568-42.38675 102.33085 34.31516 38.26234 105.1298 8.94676 102.33075-42.38675.68628-32.228747-27.69318-60.62703-59.944-59.9441z" fill="#fff" fill-rule="evenodd"/><path d="m139.988 140.263c3.94422 20.29372 46.83659 60.45948 3.81471 84.96105-16.42676 9.07777-71.066817 6.08959-23.28782 17.42876 56.76176.72485 72.68169-82.10552 19.47311-102.38981z" fill="#fff" fill-rule="evenodd"/><path d="m99.778 238.695c-68.734932-22.65486-14.779845-132.15761 39.16194-95.86669-31.15406-3.63401-89.189526 36.29137-49.538579 77.00361 7.607073 8.74223 19.210169 5.91043 10.376639 18.86308z" fill="#fff" fill-rule="evenodd"/><path d="m253.302 58.818c6.55291 19.6086 54.3028 53.85276 14.83538 83.74233-15.1068 11.13716-69.67106 15.28305-20.82247 20.31033 56.37348-6.66526 61.38302-90.863876 5.98709-104.05266z" fill="#fff" fill-rule="evenodd"/><path d="m226.239 161.644c-71.09709-13.52022-31.84689-129.111939 26.35782-100.146083-31.36086.449668-83.71024 47.584833-39.09991 82.793273 8.67988 7.67823 19.81543 3.36112 12.74209 17.35281z" fill="#fff" fill-rule="evenodd"/><path d="m-358.303-548.301c12.71509-4.18576 44.04437 10.24266 39.618-11.08457 12.67152-51.43538-39.47462-22.30573-39.618 11.08457z" fill="#fff" fill-rule="evenodd"/><path d="m-211.333 87.9206c19.22132-9.407082-6.09274-45.056554 17.33-51.7919 25.88761 1.822293 53.65599-3.749959 78.315 2.9766 7.81524 10.326196-2.53853 52.267781 7.987 41.796915-3.52467-16.200024 8.804904-43.145888-10.16-50.427315-29.06001.554991-58.34051-1.096245-87.26664.798425-12.54329 13.542836-3.42143 36.222029-6.20536 53.699856v2.771142.263077" fill="#fff" fill-rule="evenodd"/><path d="m318.675-587.919c-7.0189-4.34564-33.46362-.64481-48.00657-1.87387-162.27906-.39787-324.43956.48394-486.66243.69187-34.7268-1.52519-69.73226-.2366-104.565-.692 29.55821 4.36435 62.47063.63091 93.3217 1.874z" fill="#fff" fill-rule="evenodd"/><path d="m-107.701 239.813c-14.93523 10.77792 7.19633 43.92974-15.167 50.316-25.88719-1.82258-53.65581 3.75053-78.314-2.977-8.10355-11.65263 3.70496-53.70418-10.151-43.27271 3.50328 15.98695-8.78119 42.66332 10.16 49.73971 29.06001-.55501 58.34053 1.09628 87.26664-.79845 12.48576-12.30753 3.44995-36.57884 6.20536-53.09255" fill="#fff" fill-rule="evenodd"/><path d="m-287.228 211.674c0-33.085 0-66.17 0-99.255-8.33517 20.91033-1.77016 46.21308-3.861 68.93714 1.37474 9.90271-3.40518 22.20457 3.861 30.31786z" fill="#fff" fill-rule="evenodd"/><path d="m-280.46 110.231c-3.68796 16.58728-6.76022 34.47428-4.975 53.35485-.80937 17.22633-.24888 36.43436 4.506 50.27715-13.48932-9.2568-2.97289-35.58523-6.299-52.06957 3.47961-15.61519-7.41504-43.5356 6.299-51.56243" fill="#fff" fill-rule="evenodd"/><path d="m-124.105 39.845c-4.95533-8.691515-32.31493-1.22767-45.87242-3.7163-25.90242-2.767671-27.4547 6.175456-.61844 3.7163z" fill="#fff" fill-rule="evenodd"/><path d="m-31.4353 198.696c0-23.71167 0-47.42333 0-71.135-8.691418 10.74319-1.22774 33.13259-3.7163 48.34742 1.955663 6.40759-4.235477 21.10079 3.7163 22.78758z" fill="#fff" fill-rule="evenodd"/><path d="m-251.09 117.409c4.42034-17.631063-47.36348-2.18843-18.63871 0z" fill="#fff" fill-rule="evenodd"/><path d="m226.239 161.644c-68.04901-15.06702-37.01251-123.073046 27.276-103.635-68.30693-18.057175-96.08881 86.13607-27.489 104.444" fill="#fff" fill-rule="evenodd"/><path d="m99.778 238.695c-65.510994-23.79136-20.68807-126.84245 40.526-99.206-65.377416-26.79095-106.478138 72.9042-40.8424 99.98" fill="#fff" fill-rule="evenodd"/><path d="m139.988 140.263c66.73755 19.82799 21.32152 131.00265-40.21 98.432 64.36566 26.37395 104.82864-71.77381 40.21-98.432z" fill="#fff" fill-rule="evenodd"/><path d="m253.302 58.818c68.75149 10.975197 38.18279 127.11755-27.063 102.826 67.24971 17.77745 94.60142-84.801897 27.063-102.826z" fill="#fff" fill-rule="evenodd"/><path d="m-278.242 213.863c21.10349 3.9203 38.70487-7.00949 7.754-5.014-5.03579.94561-9.72008-3.52808-7.754 5.014z" fill="#fff" fill-rule="evenodd"/><path d="m-320.559-589.793c-21.57238-9.87716-53.0914 71.4452-33.1595 17.93788 7.11162-11.06751 20.01475-18.03524 33.1595-17.93788z" fill="#fff" fill-rule="evenodd"/><path d="m360.167-550.175c9.87684-21.57206-71.44525-53.09142-17.93788-33.1595 11.06765 7.11129 18.03405 20.01538 17.93788 33.1595z" fill="#fff" fill-rule="evenodd"/><path d="m-238.617 110.231c2.61032 20.22652-32.41999-3.37046 0 0z" fill="#fff" fill-rule="evenodd"/><path d="m-35.1516 197.459c-6.15145 26.05323-21.955072-6.39877 0 0z" fill="#fff" fill-rule="evenodd"/><path d="m-204.084 83.3945c-.30783 10.369632.61907 51.94646 1.11053 21.32779-.79487-19.411482 1.66886-39.349615-1.18153-58.42889.0237 12.367033.0473 24.734067.071 37.1011z" fill="#fff" fill-rule="evenodd"/><path d="m-112.928 83.4768c.21778-9.032624.46069-52.664155-1.01136-25.172276.62793 19.035001-1.16771 43.933336.94036 59.387476.0237-11.40507.0473-22.810133.071-34.2152z" fill="#fff" fill-rule="evenodd"/><path d="m-208.793-589.23c45.71997-.043 91.43993-.086 137.1599-.129-45.71997.043-91.43993.086-137.1599.129z" fill="#fff" fill-rule="evenodd"/><path d="m-251.09 213.863c2.1493-14.57129 24.28957 4.00008 1.38843 0z" fill="#fff" fill-rule="evenodd"/><path d="m-271.573 207.617c-15.25729 5.44945-15.40517-21.65731-3.94711-.80095z" fill="#fff" fill-rule="evenodd"/><path d="m-238.211 117.409c12.63441-10.5636-4.95804-9.98228-.304 0" fill="#fff" fill-rule="evenodd"/><path d="m-280.46 110.231c-2.32226 14.52239 6.56439 3.36517 0 0z" fill="#fff" fill-rule="evenodd"/><path d="m-235.12 213.863c-2.3086-15.01277-7.16614 4.78446.086 0" fill="#fff" fill-rule="evenodd"/><path d="m-219.08-589.717c13.68395-.28307 11.08192 1.42346 0 0z" fill="#fff" fill-rule="evenodd"/><path d="m-71.6331-589.23c13.301495-1.36824 9.814902.46745 0 0z" fill="#fff" fill-rule="evenodd"/><path d="m-211.333 87.964c-.29578 7.150271 19.15678-18.331836 0-.0434" fill="#fff" fill-rule="evenodd"/><path d="m-83.2706 110.231c-7.150271-.29578 18.331836 19.15678.0434 0" fill="#fff" fill-rule="evenodd"/><path d="m-238.046 117.692c17.84355-9.67124-5.13565-10.13087-.165-.283" fill="#fff" fill-rule="evenodd"/><path d="m-204.155 242.904c6.45688-3.36135-24.47271-9.08437 0 0z" fill="#fff" fill-rule="evenodd"/><path d="m-107.701 239.77c.27972-5.30981-13.4034 12.59066 0 .043" fill="#fff" fill-rule="evenodd"/><path d="m-235.034 213.863c5.79761.12416-13.18568-13.30106-.086 0" fill="#fff" fill-rule="evenodd"/><path d="m-78.6599 208.849c-2.370881-4.73713-6.154587 17.02452 0 0z" fill="#fff" fill-rule="evenodd"/><path d="m-112.715 83.3533c-4.73658 2.370506 17.024061 6.155058 0 0z" fill="#fff" fill-rule="evenodd"/><path d="m-61.7515-589.792c127.4335-.00033 254.867-.00067 382.3005-.001-127.4335.00033-254.867.00067-382.3005.001z" fill="#fff" fill-rule="evenodd"/><path d="m-320.559-589.793h101.098c-33.69933 0-67.39867 0-101.098 0z" fill="#fff" fill-rule="evenodd"/><path d="m320.549-589.793c-127.51003 0-255.020067 0-382.5301 0" fill="none" stroke="#000" stroke-linecap="round" stroke-linejoin="bevel" stroke-width="2.5"/><path d="m320.549-589.793c21.27501-.46012 40.07481 18.33626 39.618 39.618" fill="none" stroke="#000" stroke-linecap="round" stroke-linejoin="bevel" stroke-width="2.5"/><g style="stroke-linecap:round;stroke-linejoin:bevel;stroke-width:2.5;fill:none;stroke:#000;fill-rule:evenodd;clip-path:url(#c)"><path clip-path="url(#a)" d="m-360.177-550.175v1100.34" fill-rule="evenodd"/></g><path d="m-360.177-550.175c-.46005-21.27425 18.33621-40.07619 39.618-39.618" fill="none" stroke="#000" stroke-linecap="round" stroke-linejoin="bevel" stroke-width="2.5"/><path d="m-219.461-589.793c-33.69933 0-67.39867 0-101.098 0" fill="none" stroke="#000" stroke-linecap="round" stroke-linejoin="bevel" stroke-width="2.5"/><path d="m-61.9811-589.793c-.905843.18082-3.216909.64216-3.4666.692" fill="none" stroke="#000" stroke-linecap="round" stroke-linejoin="bevel" stroke-width="2.5"/><path d="m180.843-50.2971c42.60736.907204 80.15084-36.611333 79.248-79.2479" fill="none" stroke="#000" stroke-linecap="round" stroke-linejoin="bevel" stroke-width="2.5"/><path d="m260.091-129.545c0-107.01867 0-214.03733 0-321.056" fill="none" stroke="#000" stroke-linecap="round" stroke-linejoin="bevel" stroke-width="2.5"/><path d="m260.091-450.601c.48389-21.27048-18.34713-40.1062-39.624-39.624" fill="none" stroke="#000" stroke-linecap="round" stroke-linejoin="bevel" stroke-width="2.5"/><path d="m220.467-490.225c-146.981333 0-293.962667 0-440.944 0" fill="none" stroke="#000" stroke-linecap="round" stroke-linejoin="bevel" stroke-width="2.5"/><path d="m-220.477-490.225c-21.27048-.48389-40.1062 18.34713-39.624 39.624" fill="none" stroke="#000" stroke-linecap="round" stroke-linejoin="bevel" stroke-width="2.5"/><path d="m-260.101-450.601v360.6799" fill="none" stroke="#000" stroke-linecap="round" stroke-linejoin="bevel" stroke-width="2.5"/><path d="m-260.101-89.9211c-.48384 21.270429 18.34716 40.106161 39.624 39.624" fill="none" stroke="#000" stroke-linecap="round" stroke-linejoin="bevel" stroke-width="2.5"/><path d="m-220.477-50.2971h401.32" fill="none" stroke="#000" stroke-linecap="round" stroke-linejoin="bevel" stroke-width="2.5"/><path d="m-200.157-436.377v289.56h400.304v-289.56z" style="fill-rule:evenodd;fill:#1e1e1e;stroke-linecap:round;stroke-linejoin:bevel;stroke-width:2.5;stroke:#000"/><path d="m-218.953-589.793v.101" fill="none" stroke="#000" stroke-linecap="round" stroke-linejoin="bevel" stroke-width="2.5"/><path d="m-320.559-589.793h101.606" fill="none" stroke="#000" stroke-linecap="round" stroke-linejoin="bevel" stroke-width="2.5"/><path d="m-320.559-589.793c-21.27425-.46005-40.07619 18.33621-39.618 39.618" fill="none" stroke="#000" stroke-linecap="round" stroke-linejoin="bevel" stroke-width="2.5"/><g style="stroke-linecap:round;stroke-linejoin:bevel;stroke-width:2.5;fill:none;stroke:#000;fill-rule:evenodd;clip-path:url(#b)"><path d="m360.167-550.175v1020.07" fill-rule="evenodd"/></g><path d="m360.167-550.175c.45875-21.2741-18.33553-40.07632-39.618-39.618" fill="none" stroke="#000" stroke-linecap="round" stroke-linejoin="bevel" stroke-width="2.5"/><path d="m-61.4731-589.793h382.0221" fill="none" stroke="#000" stroke-linecap="round" stroke-linejoin="bevel" stroke-width="2.5"/><path d="m-71.6331-589.616v.515" fill="none" stroke="#000" stroke-linecap="round" stroke-linejoin="bevel" stroke-width="2.5"/><path d="m-71.6331-589.616c3.2011-.0557 6.4022-.11133 9.6033-.167" fill="none" stroke="#000" stroke-linecap="round" stroke-linejoin="bevel" stroke-width="2.5"/><path d="m-218.953-589.793c3.38667.059 6.77333.118 10.16.177" fill="none" stroke="#000" stroke-linecap="round" stroke-linejoin="bevel" stroke-width="2.5"/><path d="m-208.793-589.616h137.1599" fill="none" stroke="#000" stroke-linecap="round" stroke-linejoin="bevel" stroke-width="2.5"/></g><path d="m267.68164 245.21094v-2.45117h2.28711 2.28711v2.45117 2.45117h-2.28711-2.28711z" fill="#fff" stroke-width=".003906" transform="scale(2.6458333)"/><path d="m269.74414 275.26953v-2.45117h1.25586 1.25586v2.45117 2.45117h-1.25586-1.25586z" fill="#fff" stroke-width=".003906" transform="scale(2.6458333)"/><path d="m265.98047 288.09375v-4.90234h3.13672 3.13672v4.90234 4.90234h-3.13672-3.13672z" fill="#fff" stroke-width=".007813" transform="scale(2.6458333)"/><path d="m262.93876 312.65168v-6.93296h4.65696 4.65696v6.93296 6.93296h-4.65696-4.65696z" fill="#fff" stroke-width=".011049" transform="scale(2.6458333)"/><path d="m266.8748 343.77543v-3.46648h2.69033 2.69032v3.46648 6.24519l-2.54669.006-2.83396-2.78423z" fill="#fff" stroke-width=".005524" transform="scale(2.6458333)"/><path d="m262.27585 340.00788v-6.93296h4.98842 4.98841v6.93296 6.93296h-4.98841-4.98842z" fill="#fff" stroke-width=".011049" transform="scale(2.6458333)"/><path d="m262.27585 332.93681v-6.93296h4.98842 4.98841v6.93296 6.93296h-4.98841-4.98842z" fill="#fff" stroke-width=".011049" transform="scale(2.6458333)"/><path d="m262.27585 325.86574v-6.93296h4.98842 4.98841v6.93296 6.93296h-4.98841-4.98842z" fill="#fff" stroke-width=".011049" transform="scale(2.6458333)"/><path d="m262.27585 305.53642v-6.93296h4.98842 4.98841v6.93296 6.93296h-4.98841-4.98842z" fill="#fff" stroke-width=".011049" transform="scale(2.6458333)"/><path d="m262.27585 295.8137v-6.93296h4.98842 4.98841v6.93296 6.93296h-4.98841-4.98842z" fill="#fff" stroke-width=".011049" transform="scale(2.6458333)"/><path d="m262.27585 283.43933v-6.93296h4.98842 4.98841v6.93296 6.93296h-4.98841-4.98842z" fill="#fff" stroke-width=".011049" transform="scale(2.6458333)"/><path d="m262.27585 271.06496v-6.93296h4.98842 4.98841v6.93296 6.93297h-4.98841-4.98842z" fill="#fff" stroke-width=".011049" transform="scale(2.6458333)"/><path d="m262.27585 262.22613v-6.93296h4.98842 4.98841v6.93296 6.93296h-4.98841-4.98842z" fill="#fff" stroke-width=".011049" transform="scale(2.6458333)"/><path d="m262.27585 252.50341v-6.93296h4.98842 4.98841v6.93296 6.93296h-4.98841-4.98842z" fill="#fff" stroke-width=".011049" transform="scale(2.6458333)"/><path d="m262.27585 239.24516v-6.93296h4.98842 4.98841v6.93296 6.93296h-4.98841-4.98842z" fill="#fff" stroke-width=".011049" transform="scale(2.6458333)"/><path d="m262.27585 227.75467v-6.93296h4.98842 4.98841v6.93296 6.93297h-4.98841-4.98842z" fill="#fff" stroke-width=".011049" transform="scale(2.6458333)"/><path d="m262.27585 218.91584v-6.93296h4.98842 4.98841v6.93296 6.93296h-4.98841-4.98842z" fill="#fff" stroke-width=".011049" transform="scale(2.6458333)"/><path d="m262.27585 208.30924v-6.93296h4.98842 4.98841v6.93296 6.93296h-4.98841-4.98842z" fill="#fff" stroke-width=".011049" transform="scale(2.6458333)"/><path d="m262.27585 197.70264v-6.93296h4.98842 4.98841v6.93296 6.93296h-4.98841-4.98842z" fill="#fff" stroke-width=".011049" transform="scale(2.6458333)"/><path d="m262.27585 187.97992v-6.93296h4.98842 4.98841v6.93296 6.93296h-4.98841-4.98842z" fill="#fff" stroke-width=".011049" transform="scale(2.6458333)"/><path d="m262.27585 179.14108v-6.93296h4.98842 4.98841v6.93296 6.93296h-4.98841-4.98842z" fill="#fff" stroke-width=".011049" transform="scale(2.6458333)"/><path d="m262.27585 171.18613v-6.93296h4.98842 4.98841v6.93296 6.93296h-4.98841-4.98842z" fill="#fff" stroke-width=".011049" transform="scale(2.6458333)"/><path d="m262.27585 162.3473v-6.93296h4.98842 4.98841v6.93296 6.93296h-4.98841-4.98842z" fill="#fff" stroke-width=".011049" transform="scale(2.6458333)"/><path d="m262.27585 152.62458v-6.93296h4.98842 4.98841v6.93296 6.93296h-4.98841-4.98842z" fill="#fff" stroke-width=".011049" transform="scale(2.6458333)"/><path d="m262.27585 137.59856v-6.93296h4.98842 4.98841v6.93296 6.93296h-4.98841-4.98842z" fill="#fff" stroke-width=".011049" transform="scale(2.6458333)"/><path d="m262.27585 143.78574v-6.93296h4.98842 4.98841v6.93296 6.93297h-4.98841-4.98842z" fill="#fff" stroke-width=".011049" transform="scale(2.6458333)"/><path d="m262.27585 127.87584v-6.93296h4.98842 4.98841v6.93296 6.93296h-4.98841-4.98842z" fill="#fff" stroke-width=".011049" transform="scale(2.6458333)"/><path d="m262.27585 118.15312v-6.93296h4.98842 4.98841v6.93296 6.93296h-4.98841-4.98842z" fill="#fff" stroke-width=".011049" transform="scale(2.6458333)"/><path d="m262.27585 107.54652v-6.93296h4.98842 4.98841v6.93296 6.93296h-4.98841-4.98842z" fill="#fff" stroke-width=".011049" transform="scale(2.6458333)"/><path d="m262.27585 96.93992v-6.932961h4.98842 4.98841v6.932961 6.93296h-4.98841-4.98842z" fill="#fff" stroke-width=".011049" transform="scale(2.6458333)"/><path d="m262.27585 86.333318v-6.932961h4.98842 4.98841v6.932961 6.932962h-4.98841-4.98842z" fill="#fff" stroke-width=".011049" transform="scale(2.6458333)"/><path d="m262.27585 76.6106v-6.932961h4.98842 4.98841v6.932961 6.932961h-4.98841-4.98842z" fill="#fff" stroke-width=".011049" transform="scale(2.6458333)"/><path d="m262.27585 65.120115v-6.932961h4.98842 4.98841v6.932961 6.932961h-4.98841-4.98842z" fill="#fff" stroke-width=".011049" transform="scale(2.6458333)"/><path d="m262.27585 54.513513v-6.932961h4.98842 4.98841v6.932961 6.932961h-4.98841-4.98842z" fill="#fff" stroke-width=".011049" transform="scale(2.6458333)"/><path d="m262.27585 43.906912v-6.932961h4.98842 4.98841v6.932961 6.932961h-4.98841-4.98842z" fill="#fff" stroke-width=".011049" transform="scale(2.6458333)"/><path d="m262.27585 32.416426v-6.932961h4.98842 4.98841v6.932961 6.932961h-4.98841-4.98842z" fill="#fff" stroke-width=".011049" transform="scale(2.6458333)"/></svg>