<svg height="24.907238mm" viewBox="0 0 249.07278 249.07237" width="24.907278mm" xmlns="http://www.w3.org/2000/svg"><path d="m-271.573 118.64c22.86233-.0207 45.72467-.0413 68.587-.062.0207-22.8623.0413-45.7246.062-68.5869-.13031-5.437405 4.72524-10.277227 10.159-10.1461h68.66c5.43354-.130938 10.28825 4.709155 10.158 10.1461l.063 68.5869c22.862133.0207 45.724267.0413 68.5864.062 5.437385-.13032 10.27723 4.72524 10.146 10.159v68.66c.131041 5.43354-4.709074 10.28826-10.146 10.158l-68.5864.063-.063 68.586c.13028 5.43693-4.72441 10.27715-10.158 10.146h-68.66c-5.43381.13134-10.28935-4.70861-10.159-10.146-.0207-22.862-.0413-45.724-.062-68.586l-68.587-.063c-5.43693.13028-10.27715-4.72441-10.146-10.158v-68.66c-.13134-5.43381 4.70861-10.28935 10.146-10.159" style="fill-rule:evenodd;fill:#333;stroke-linecap:round;stroke-linejoin:bevel;stroke-width:2.5;stroke:#000" transform="translate(282.9717 -38.59232)"/></svg>